<svg id="visual" viewBox="0 0 960 540" width="960" height="540" xmlns="http://www.w3.org/2000/svg" xmlns:xlink="http://www.w3.org/1999/xlink" version="1.1"><rect x="0" y="0" width="960" height="540" fill="#ffffff"></rect><defs><linearGradient id="grad1_0" x1="43.8%" y1="100%" x2="100%" y2="0%"><stop offset="14.444444444444446%" stop-color="#05b3ff" stop-opacity="1"></stop><stop offset="85.55555555555554%" stop-color="#05b3ff" stop-opacity="1"></stop></linearGradient></defs><defs><linearGradient id="grad1_1" x1="43.8%" y1="100%" x2="100%" y2="0%"><stop offset="14.444444444444446%" stop-color="#05b3ff" stop-opacity="1"></stop><stop offset="85.55555555555554%" stop-color="#ffffff" stop-opacity="1"></stop></linearGradient></defs><defs><linearGradient id="grad2_0" x1="0%" y1="100%" x2="56.3%" y2="0%"><stop offset="14.444444444444446%" stop-color="#05b3ff" stop-opacity="1"></stop><stop offset="85.55555555555554%" stop-color="#05b3ff" stop-opacity="1"></stop></linearGradient></defs><defs><linearGradient id="grad2_1" x1="0%" y1="100%" x2="56.3%" y2="0%"><stop offset="14.444444444444446%" stop-color="#ffffff" stop-opacity="1"></stop><stop offset="85.55555555555554%" stop-color="#05b3ff" stop-opacity="1"></stop></linearGradient></defs><g transform="translate(960, 540)"><path d="M-324 0C-312.9 -39.2 -301.8 -78.5 -288.3 -119.4C-274.7 -160.3 -258.9 -202.9 -229.1 -229.1C-199.3 -255.3 -155.7 -265 -115.2 -278.1C-74.7 -291.2 -37.3 -307.6 0 -324L0 0Z" fill="#abd8ff"></path><path d="M-162 0C-156.4 -19.6 -150.9 -39.2 -144.1 -59.7C-137.4 -80.2 -129.4 -101.5 -114.6 -114.6C-99.7 -127.6 -77.8 -132.5 -57.6 -139C-37.3 -145.6 -18.7 -153.8 0 -162L0 0Z" fill="#05b3ff"></path></g><g transform="translate(0, 0)"><path d="M324 0C286.5 28.1 249.1 56.3 239.3 99.1C229.5 141.9 247.3 199.5 229.1 229.1C210.9 258.7 156.7 260.5 112.5 271.6C68.3 282.8 34.2 303.4 0 324L0 0Z" fill="#abd8ff"></path><path d="M162 0C143.3 14.1 124.5 28.1 119.6 49.6C114.7 71 123.6 99.7 114.6 114.6C105.5 129.4 78.3 130.2 56.3 135.8C34.2 141.4 17.1 151.7 0 162L0 0Z" fill="#05b3ff"></path></g></svg>