<svg id="visual" viewBox="0 0 480 1024" width="480" height="1024" xmlns="http://www.w3.org/2000/svg" xmlns:xlink="http://www.w3.org/1999/xlink" version="1.1"><rect x="0" y="0" width="480" height="1024" fill="#ffffff"></rect><defs><linearGradient id="grad1_0" x1="0%" y1="100%" x2="100%" y2="0%"><stop offset="30%" stop-color="#05b3ff" stop-opacity="1"></stop><stop offset="70%" stop-color="#05b3ff" stop-opacity="1"></stop></linearGradient></defs><defs><linearGradient id="grad1_1" x1="0%" y1="100%" x2="100%" y2="0%"><stop offset="30%" stop-color="#05b3ff" stop-opacity="1"></stop><stop offset="70%" stop-color="#ffffff" stop-opacity="1"></stop></linearGradient></defs><defs><linearGradient id="grad2_0" x1="0%" y1="100%" x2="100%" y2="0%"><stop offset="30%" stop-color="#05b3ff" stop-opacity="1"></stop><stop offset="70%" stop-color="#05b3ff" stop-opacity="1"></stop></linearGradient></defs><defs><linearGradient id="grad2_1" x1="0%" y1="100%" x2="100%" y2="0%"><stop offset="30%" stop-color="#ffffff" stop-opacity="1"></stop><stop offset="70%" stop-color="#05b3ff" stop-opacity="1"></stop></linearGradient></defs><g transform="translate(480, 1024)"><path d="M-288 0C-264.3 -32.8 -240.6 -65.7 -219.9 -91.1C-199.2 -116.5 -181.6 -134.4 -166.2 -166.2C-150.8 -197.9 -137.5 -243.5 -110.2 -266.1C-82.9 -288.7 -41.4 -288.3 0 -288L0 0Z" fill="#abd8ff"></path><path d="M-144 0C-132.1 -16.4 -120.3 -32.8 -109.9 -45.5C-99.6 -58.2 -90.8 -67.2 -83.1 -83.1C-75.4 -99 -68.8 -121.7 -55.1 -133C-41.4 -144.3 -20.7 -144.2 0 -144L0 0Z" fill="#05b3ff"></path></g><g transform="translate(0, 0)"><path d="M288 0C287.4 42.4 286.9 84.8 263.3 109.1C239.7 133.4 193.2 139.6 166.9 166.9C140.6 194.1 134.6 242.4 110.2 266.1C85.8 289.8 42.9 288.9 0 288L0 0Z" fill="#abd8ff"></path><path d="M144 0C143.7 21.2 143.4 42.4 131.7 54.5C119.9 66.7 96.6 69.8 83.4 83.4C70.3 97.1 67.3 121.2 55.1 133C42.9 144.9 21.4 144.4 0 144L0 0Z" fill="#05b3ff"></path></g></svg>